<svg viewBox="0 0 64 64" fill="none" xmlns="http://www.w3.org/2000/svg">
  <!-- Background circle -->
  <circle cx="32" cy="32" r="32" fill="#3B82F6"/>
  
  <!-- Car body -->
  <path d="M12 34 L18 27 L22 24 L42 24 L46 27 L52 34 L52 40 L49 42 L15 42 L12 40 Z" fill="white" opacity="0.95"/>
  
  <!-- Car top/roof -->
  <path d="M21 24 L24 18 L40 18 L43 24 Z" fill="white"/>
  
  <!-- Front window -->
  <path d="M24 20 L26 24 L30 24 L29 20 Z" fill="#3B82F6" opacity="0.4"/>
  
  <!-- Back window -->
  <path d="M34 20 L33 24 L37 24 L40 20 Z" fill="#3B82F6" opacity="0.4"/>
  
  <!-- Front wheel -->
  <circle cx="20" cy="42" r="5" fill="none" stroke="white" stroke-width="2.5"/>
  <circle cx="20" cy="42" r="2" fill="white"/>
  
  <!-- Back wheel -->
  <circle cx="44" cy="42" r="5" fill="none" stroke="white" stroke-width="2.5"/>
  <circle cx="44" cy="42" r="2" fill="white"/>
  
  <!-- Front light -->
  <circle cx="50" cy="34" r="1.5" fill="#FCD34D"/>
</svg>
